<svg width="84" height="44" viewBox="0 0 84 44" fill="none" xmlns="http://www.w3.org/2000/svg">
<path fill-rule="evenodd" clip-rule="evenodd" d="M78.8926 29.0673C78.8926 30.3055 79.9514 31.3378 81.2191 31.3378C82.4868 31.3378 83.5455 30.3046 83.5455 29.0673C83.5455 27.8301 82.4868 26.7969 81.2191 26.7969C79.9514 26.7969 78.8926 27.8292 78.8926 29.0673" fill="#5C5C5C"/>
<path fill-rule="evenodd" clip-rule="evenodd" d="M33.7013 22.8716C33.1403 23.1936 32.6793 23.5577 32.3933 23.9576C31.7993 24.7905 31.682 25.4865 31.7049 25.8506C31.7837 25.8264 31.8836 25.7897 32.0037 25.7343C32.0184 25.7271 32.033 25.7208 32.0477 25.7146C33.1642 25.2279 33.5849 24.0542 33.7013 22.8716ZM13.5303 26.012C13.5459 26.0129 13.5669 26.0137 13.5935 26.0129C16.1592 25.8652 18.7515 23.661 20.362 20.2544C20.8048 19.3186 21.1375 18.3901 21.3731 17.4794C21.3667 17.4838 21.3593 17.4883 21.3529 17.4919C17.008 20.0907 14.0518 22.4828 13.5303 23.2566C13.1526 24.2389 13.2507 25.6425 13.5303 26.012ZM53.5628 43.2441C52.428 43.2441 51.4243 42.4461 51.2263 41.3172C51.0054 40.0558 51.8744 38.8588 53.1659 38.6432C58.9197 37.6833 64.3215 31.9258 66.6837 26.7345C67.4115 25.1349 67.8634 23.598 68.033 22.2168C65.9321 25.2056 63.5525 28.2857 60.5944 28.7867C59.3029 29.0058 58.0416 28.7115 56.9462 27.935C54.8223 26.4491 53.7517 23.1776 52.824 18.9444C51.8487 21.3025 50.7212 23.9818 49.6579 26.3686C46.7128 32.9778 45.6274 34.767 43.6026 34.767C43.015 34.767 41.5823 34.5505 40.9691 32.5421C40.8316 32.0913 40.7096 31.5143 40.5868 30.7279C40.3824 29.4272 40.2027 27.7131 40.0286 26.0555C39.8718 24.5552 39.6537 22.4744 39.4456 21.2551C39.1568 21.2667 38.825 21.2989 38.4657 21.3508C38.6729 25.4525 37.0788 28.5854 34.0044 29.9362C32.2215 30.7476 29.7429 30.9364 28.1021 29.0398C26.4494 27.1299 26.6116 23.9505 28.4981 21.3097C29.5495 19.8354 31.2435 18.7798 33.0217 18.0498C32.1931 15.6192 30.8575 13.7799 30.171 13.5026C29.6732 13.5062 28.4486 13.8578 26.5704 14.7112C26.4531 17.2008 25.8252 19.7603 24.6729 22.1962C22.2851 27.2471 18.2335 30.4032 13.8373 30.6393C13.8272 30.6402 13.8162 30.6411 13.8061 30.6411C12.0901 30.7127 10.618 30.0203 9.66104 28.6927C8.1944 26.6575 8.29982 23.5014 9.16238 21.4358C9.16513 21.4287 9.16788 21.4215 9.17155 21.4135C10.2211 18.9739 16.062 15.2417 18.525 13.7504C19.5076 13.1546 20.5801 12.5329 21.681 11.9398C21.3877 10.0602 20.6929 8.45086 19.7909 7.28789C18.2335 5.39226 13.29 4.9718 10.0607 5.87623C7.15034 6.69209 4.6919 9.66929 4.66807 9.69881C3.85776 10.7052 2.36546 10.8806 1.33515 10.0906C0.303921 9.30072 0.124259 7.84433 0.933656 6.83791C1.07024 6.66794 4.33349 2.66018 8.75081 1.42296C12.9289 0.251948 20.2758 0.411185 23.528 4.43057C23.5363 4.44131 23.5455 4.45115 23.5537 4.46278C24.7747 6.02742 25.6327 7.86311 26.1176 9.84821C27.7859 9.20231 29.3295 8.80869 30.5166 8.87847C32.3709 8.98761 34.151 10.2973 35.6653 12.6644C36.4399 13.8756 37.1045 15.3141 37.5912 16.8072C37.9432 16.7544 38.2723 16.7151 38.5702 16.6891C40.7445 16.495 42.0993 16.7813 42.9646 17.6159C43.9262 18.5445 44.1617 19.9544 44.7521 25.584C44.7566 25.627 44.7612 25.6708 44.7658 25.7146C46.083 22.8045 47.8375 18.6617 50.0218 13.3076C50.5764 11.9487 50.9422 11.0505 51.1172 10.6569C51.4995 9.799 52.3657 9.24883 53.3319 9.26404C55.4411 9.29714 56.025 11.4352 56.245 12.2394C56.4778 13.0947 56.6959 14.195 56.9489 15.4689C57.3156 17.3189 57.7308 19.4167 58.2845 21.1988C59.0591 23.692 59.687 24.1518 59.7135 24.1697C59.7209 24.175 59.7273 24.1795 59.7346 24.1849C59.7594 24.2019 59.7777 24.2135 59.7905 24.2207C59.9051 24.1983 60.489 24.0301 61.6577 22.7634C62.7073 21.6255 63.7789 20.0859 64.7239 18.7279C65.9266 16.9996 66.8771 15.6344 67.8616 14.8785C68.3887 14.4732 69.067 14.3042 69.7288 14.4151C70.3906 14.5251 70.9736 14.9035 71.3329 15.4564C73.4568 18.7198 73.3431 23.5157 71.0231 28.6149C69.4712 32.026 67.0449 35.3243 64.1923 37.9034C60.9959 40.792 57.4604 42.6277 53.9662 43.2101C53.8305 43.2334 53.6958 43.2441 53.5628 43.2441V43.2441Z" fill="#5C5C5C"/>
</svg>
